<svg xmlns="http://www.w3.org/2000/svg" width="1200" height="720"><rect width="100%" height="100%" fill="white"/><text x="600" y="55" text-anchor="middle" font-size="30" font-family="Arial,Microsoft YaHei,sans-serif" font-weight="bold">LOCA再淹没阶段与DFFB区域示意图（原创示意）</text><rect x="230" y="120" width="740" height="530" rx="35" fill="#f5fbff" stroke="#285078" stroke-width="5"/><rect x="390" y="180" width="420" height="410" fill="#fafafa" stroke="#555" stroke-width="3"/><g stroke="#999" stroke-width="5"><line x1="430" y1="200" x2="430" y2="570"/><line x1="475" y1="200" x2="475" y2="570"/><line x1="520" y1="200" x2="520" y2="570"/><line x1="565" y1="200" x2="565" y2="570"/><line x1="610" y1="200" x2="610" y2="570"/><line x1="655" y1="200" x2="655" y2="570"/><line x1="700" y1="200" x2="700" y2="570"/><line x1="745" y1="200" x2="745" y2="570"/></g><rect x="390" y="460" width="420" height="130" fill="#a6d7ff" stroke="#1e78c8" stroke-width="2"/><line x1="360" y1="460" x2="840" y2="460" stroke="#1478dc" stroke-width="5"/><text x="850" y="455" font-size="24" font-family="Arial,Microsoft YaHei,sans-serif">淬灭前沿</text><text x="438" y="155" font-size="24" font-family="Arial,Microsoft YaHei,sans-serif">燃料组件/定位格架/交混翼片</text><text x="850" y="275" font-size="22" font-family="Arial,Microsoft YaHei,sans-serif">过热蒸汽+离散液滴</text><text x="850" y="305" font-size="22" font-family="Arial,Microsoft YaHei,sans-serif">DFFB区域</text><g fill="#1e82dc"><circle cx="430" cy="300" r="8"/><circle cx="500" cy="250" r="7"/><circle cx="565" cy="340" r="6"/><circle cx="640" cy="295" r="8"/><circle cx="710" cy="255" r="7"/><circle cx="760" cy="350" r="6"/></g><line x1="600" y1="690" x2="600" y2="590" stroke="#0078dc" stroke-width="9"/><polygon points="580,600 620,600 600,565" fill="#0078dc"/><text x="650" y="625" font-size="24" font-family="Arial,Microsoft YaHei,sans-serif">ECCS注水</text></svg>