<svg xmlns="http://www.w3.org/2000/svg" width="1200" height="720"><rect width="100%" height="100%" fill="white"/><text x="600" y="55" text-anchor="middle" font-size="30" font-family="Arial,Microsoft YaHei,sans-serif" font-weight="bold">液滴撞击高温倾斜交混翼片示意图（原创示意）</text><polygon points="230,530 980,300 1020,360 270,590" fill="#e5e5e5" stroke="#666" stroke-width="4"/><text x="820" y="405" font-size="24" font-family="Arial,Microsoft YaHei,sans-serif">高温倾斜交混翼片</text><circle cx="580" cy="170" r="60" fill="#50aef5" stroke="#1450a0" stroke-width="4"/><line x1="580" y1="230" x2="580" y2="380" stroke="#3296e6" stroke-width="6"/><polygon points="560,360 600,360 580,405" fill="#3296e6"/><text x="645" y="180" font-size="24" font-family="Arial,Microsoft YaHei,sans-serif">入射液滴</text><ellipse cx="610" cy="455" rx="120" ry="50" fill="#64c8ff" stroke="#1450a0" stroke-width="4"/><g fill="#64c8ff" stroke="#1450a0" stroke-width="2"><circle cx="450" cy="390" r="14"/><circle cx="760" cy="385" r="14"/><circle cx="800" cy="350" r="12"/><circle cx="410" cy="425" r="12"/><circle cx="735" cy="455" r="12"/></g><text x="395" y="610" font-size="24" font-family="Arial,Microsoft YaHei,sans-serif">非对称铺展、滑移与次级液滴</text><path d="M120 410 C170 300 240 270 330 300" fill="none" stroke="#c83c28" stroke-width="6"/><text x="120" y="250" font-size="24" font-family="Arial,Microsoft YaHei,sans-serif" fill="#b43228">重力切向分量</text></svg>