<svg xmlns="http://www.w3.org/2000/svg" width="1200" height="720"><rect width="100%" height="100%" fill="white"/><text x="600" y="55" text-anchor="middle" font-size="30" font-family="Arial,Microsoft YaHei,sans-serif" font-weight="bold">过渡沸腾破碎雾化与膜态沸腾中心射流对比（原创示意）</text><text x="320" y="115" text-anchor="middle" font-size="24" font-family="Arial,Microsoft YaHei,sans-serif">过渡沸腾：整体性破碎</text><rect x="130" y="545" width="390" height="30" fill="#aaa"/><rect x="210" y="505" width="230" height="20" fill="#ffd25a"/><ellipse cx="325" cy="420" rx="115" ry="85" fill="#46aaf5" stroke="#1450a0" stroke-width="4"/><g fill="#46aaf5" stroke="#1450a0" stroke-width="2"><circle cx="160" cy="310" r="14"/><circle cx="460" cy="310" r="14"/><circle cx="250" cy="260" r="12"/><circle cx="365" cy="250" r="12"/><circle cx="500" cy="390" r="13"/><circle cx="135" cy="420" r="12"/></g><g stroke="#f0a028" stroke-width="4" fill="none"><circle cx="260" cy="525" r="16"/><circle cx="320" cy="520" r="17"/><circle cx="380" cy="526" r="16"/></g><text x="325" y="625" text-anchor="middle" font-size="20" font-family="Arial,Microsoft YaHei,sans-serif">气泡爆发 + 薄液膜失稳</text><text x="880" y="115" text-anchor="middle" font-size="24" font-family="Arial,Microsoft YaHei,sans-serif">膜态沸腾：局部中心射流</text><rect x="680" y="545" width="390" height="30" fill="#aaa"/><rect x="760" y="505" width="230" height="20" fill="#ffd25a"/><ellipse cx="875" cy="435" rx="115" ry="70" fill="#46aaf5" stroke="#1450a0" stroke-width="4"/><line x1="875" y1="365" x2="875" y2="235" stroke="#46aaf5" stroke-width="18"/><circle cx="875" cy="215" r="17" fill="#46aaf5" stroke="#1450a0"/><g fill="#46aaf5" stroke="#1450a0" stroke-width="2"><circle cx="845" cy="180" r="11"/><circle cx="900" cy="160" r="11"/><circle cx="930" cy="230" r="11"/><circle cx="810" cy="250" r="11"/></g><text x="875" y="625" text-anchor="middle" font-size="20" font-family="Arial,Microsoft YaHei,sans-serif">蒸汽压力汇聚 + 射流断裂</text></svg>